<?xml version="1.0" encoding="iso-8859-1"?>
<!-- Generator: Adobe Illustrator 19.0.0, SVG Export Plug-In . SVG Version: 6.00 Build 0)  -->
<svg version="1.1" id="Layer_1" xmlns="http://www.w3.org/2000/svg" xmlns:xlink="http://www.w3.org/1999/xlink" x="0px" y="0px"
	 viewBox="0 0 512 512" style="enable-background:new 0 0 512 512;" xml:space="preserve">
<rect x="384" y="88.066" style="fill:#AACD4C;" width="64" height="32"/>
<rect x="327.995" y="64.062" style="fill:#95C11F;" width="80" height="32"/>
<rect x="208" y="424.068" style="fill:#6A86AC;" width="96" height="24"/>
<g>
	<rect x="183.995" y="408.068" style="fill:#FFFFFF;" width="24" height="39.995"/>
	<rect x="304" y="408.068" style="fill:#FFFFFF;" width="24" height="39.995"/>
</g>
<rect x="32" y="208.062" style="fill:#6A86AC;" width="448" height="208"/>
<rect x="199.995" y="344.068" style="fill:#889EBD;" width="112" height="80"/>
<g>
	<rect x="64" y="256.062" style="fill:#FFFFFF;" width="80" height="32"/>
	<rect x="215.995" y="256.062" style="fill:#FFFFFF;" width="80" height="32"/>
	<rect x="368" y="256.062" style="fill:#FFFFFF;" width="80" height="32"/>
	<rect x="368" y="336.062" style="fill:#FFFFFF;" width="80" height="32"/>
	<rect x="64" y="336.062" style="fill:#FFFFFF;" width="80" height="32"/>
</g>
<rect x="32" y="416.062" style="fill:#AACD4C;" width="151.995" height="32"/>
<rect x="327.995" y="416.062" style="fill:#95C11F;" width="151.995" height="32"/>
<polyline style="fill:#AACD4C;" points="32,208.066 32,176.066 480,176.066 480,208.066 "/>
<polyline style="fill:#95C11F;" points="256,208.066 256,176.066 480,176.066 480,208.066 "/>
<g>
	<path style="fill:#1D1D1B;" d="M151.869,295.934H56.131v-47.738h95.738V295.934z M71.869,280.197h64.262v-16.262H71.869V280.197z"
		/>
	<path style="fill:#1D1D1B;" d="M151.869,375.934H56.131v-47.738h95.738V375.934z M71.869,360.197h64.262v-16.262H71.869V360.197z"
		/>
	<path style="fill:#1D1D1B;" d="M455.869,375.934h-95.738v-47.738h95.738V375.934z M375.869,360.197h64.262v-16.262h-64.262V360.197
		z"/>
	<path style="fill:#1D1D1B;" d="M303.869,295.934h-95.738v-47.738h95.738V295.934z M223.869,280.197h64.262v-16.262h-64.262V280.197
		z"/>
	<path style="fill:#1D1D1B;" d="M455.869,295.934h-95.738v-47.738h95.738V295.934z M375.869,280.197h64.262v-16.262h-64.262V280.197
		z"/>
	<polygon style="fill:#1D1D1B;" points="319.869,392.066 304.131,392.066 304.131,351.934 207.869,351.934 207.869,392.066 
		192.131,392.066 192.131,336.197 319.869,336.197 	"/>
</g>
<rect x="224" y="312.194" style="fill:#FFFFFF;" width="64" height="15.738"/>
<g>
	<path style="fill:#1D1D1B;" d="M487.869,168.197h-152V56.066h-15.738v112.131h-296v272H0v15.738h512v-15.738h-24.131V168.197z
		 M472.131,408.197H335.869v-8h-39.738v16h-80.262v-16h-39.738v8H39.869V215.934h432.262V408.197z M191.869,415.934h8.262v24.262
		h-8.262V415.934z M215.869,431.934h80.262v8.262h-80.262V431.934z M311.869,415.934h8.262v24.262h-8.262V415.934z M335.869,423.934
		h136.262v16.262H335.869V423.934z M39.869,183.934h432.262v16.262H39.869V183.934z M39.869,423.934h136.262v16.262H39.869V423.934z
		"/>
	<path style="fill:#1D1D1B;" d="M376.131,127.934h79.738V80.197h-40v-24H344v15.738h56.131v16.262H344v15.738h32.131V127.934z
		 M415.869,103.934v-8h24.262v16.262h-48.262v-8.262H415.869z"/>
</g>
<g>
</g>
<g>
</g>
<g>
</g>
<g>
</g>
<g>
</g>
<g>
</g>
<g>
</g>
<g>
</g>
<g>
</g>
<g>
</g>
<g>
</g>
<g>
</g>
<g>
</g>
<g>
</g>
<g>
</g>
</svg>
