<?xml version="1.0" encoding="iso-8859-1"?>
<!-- Generator: Adobe Illustrator 19.0.0, SVG Export Plug-In . SVG Version: 6.00 Build 0)  -->
<svg version="1.1" id="Layer_1" xmlns="http://www.w3.org/2000/svg" xmlns:xlink="http://www.w3.org/1999/xlink" x="0px" y="0px"
	 viewBox="0 0 512.001 512.001" style="enable-background:new 0 0 512.001 512.001;" xml:space="preserve">
<g>
	<path style="fill:#878787;" d="M391.69,127.887h-40.842c-17.22,0-31.178-13.958-31.178-31.178V76.252
		c0-15.679,12.71-28.388,28.388-28.388l0,0c24.098,0,43.632,19.535,43.632,43.632V127.887z"/>
	<path style="fill:#878787;" d="M260.507,127.887H111.608l0,0c0-66.294,53.742-120.035,120.036-120.035h58.749
		c16.17,0,29.278,13.108,29.278,29.277v31.596C319.67,101.399,293.182,127.887,260.507,127.887z"/>
</g>
<path style="fill:#575756;" d="M290.443,7.852h-40.012c16.141,0,29.227,13.085,29.227,29.226v31.697
	c0,32.647-26.465,59.112-59.112,59.112h40.012c32.647,0,59.112-26.465,59.112-59.112V37.077
	C319.67,20.937,306.585,7.852,290.443,7.852z"/>
<path style="fill:#59BD85;" d="M503.723,512H7.578l0,0c0-106.07,85.986-192.056,192.055-192.056h112.033
	C417.738,319.943,503.723,405.93,503.723,512L503.723,512z"/>
<g>
	<path style="fill:#2FAC66;" d="M399.693,512v-16.005l-24.008-16.005l48.014-56.016l-56.016-96.028c0,0-17.314,36.24-56.017,56.017
		L311.013,512H399.693z"/>
	<path style="fill:#2FAC66;" d="M111.562,512v-16.005l24.008-16.005l-48.014-56.016l56.016-96.028c0,0,17.314,36.24,56.017,56.017
		L200.241,512H111.562z"/>
</g>
<path style="fill:#B5477C;" d="M310.753,512H199.634V383.963c0,0,23.212,16.226,56.016,16.004
	c38.305-0.259,56.016-16.004,56.016-16.004L310.753,512z"/>
<path style="fill:#A3195B;" d="M310.753,512l0.914-125.524c0,0-17.711,13.233-56.016,13.492l-1.125,112.033h56.228V512z"/>
<path style="fill:#E8C0A8;" d="M383.688,175.901c13.259,0,24.008,10.749,24.008,24.007s-10.749,24.007-24.008,24.007"/>
<g>
	<path style="fill:#F3D1BB;" d="M127.614,223.915c-13.259,0-24.008-10.749-24.008-24.007s10.749-24.007,24.008-24.007"/>
	<path style="fill:#F3D1BB;" d="M375.686,126.27v153.662c0,66.294-53.741,120.035-120.035,120.035l0,0
		c-66.294,0-120.035-53.741-120.035-120.035V126.186"/>
</g>
<path style="fill:#E8C0A8;" d="M346.95,127.887c-13.945,0-25.315-10.503-26.951-24.007h-19.964
	c-10.191,13.76-26.182,22.906-44.385,23.851v272.236c66.294,0,120.035-52.206,120.035-116.605V127.887H346.95z"/>
<rect x="183.628" y="149.949" style="fill:#878787;" width="40.013" height="15.704"/>
<rect x="287.66" y="149.949" style="fill:#9D9D9C;" width="40.013" height="15.704"/>
<g>
	<circle style="fill:#FFFFFF;" cx="207.634" cy="207.906" r="32.009"/>
	<circle style="fill:#FFFFFF;" cx="303.667" cy="207.906" r="32.009"/>
	<rect x="119.609" y="408.118" style="fill:#FFFFFF;" width="16.005" height="15.704"/>
</g>
<polygon style="fill:#1D1D1B;" points="87.45,512 71.747,512 71.747,479.84 63.594,479.84 63.594,464.136 87.45,464.136 "/>
<rect x="375.684" y="408.118" style="fill:#FFFFFF;" width="16.004" height="15.704"/>
<g>
	<polygon style="fill:#1D1D1B;" points="439.553,512 423.849,512 423.849,464.136 447.708,464.136 447.708,479.84 439.553,479.84 	
		"/>
	<path style="fill:#1D1D1B;" d="M255.65,351.802c-21.98,0-39.861-17.881-39.861-39.861h15.704c0,13.321,10.838,24.158,24.158,24.158
		c13.32,0,24.158-10.837,24.158-24.158h15.704C295.513,333.921,277.63,351.802,255.65,351.802z"/>
</g>
<polygon style="fill:#59BD85;" points="279.658,512 231.281,512 231.281,471.988 247.286,447.98 263.291,447.98 279.658,471.988 "/>
<path style="fill:#2FAC66;" d="M277.689,447.98h-44.802c-0.887,0-1.606-0.719-1.606-1.606v-44.801c0-0.887,0.72-1.607,1.606-1.607
	h44.802c0.888,0,1.606,0.72,1.606,1.607v44.801C279.295,447.262,278.577,447.98,277.689,447.98z"/>
<path style="fill:#59BD85;" d="M261.684,447.98h-28.796c-0.887,0-1.606-0.719-1.606-1.606v-44.801c0-0.887,0.72-1.607,1.606-1.607
	h28.796c0.888,0,1.607,0.72,1.607,1.607v44.801C263.291,447.262,262.571,447.98,261.684,447.98z"/>
<polygon style="fill:#2FAC66;" points="263.291,447.98 279.295,471.988 279.295,512 255.921,512 255.289,447.98 "/>
<path style="fill:#575756;" d="M364.41,47.864h-32.009c15.067,0,27.281,12.214,27.281,27.28v52.742h32.008V75.144
	C391.69,60.078,379.477,47.864,364.41,47.864z"/>
<g>
	<path style="fill:#1D1D1B;" d="M471.191,391.501c-24.023-31.757-57.553-55.966-95.029-68.77c4.77-13.389,7.376-27.796,7.376-42.801
		v-48.164h0.151c17.567,0,31.86-14.291,31.86-31.859s-14.291-31.859-31.86-31.859h-0.151v-32.311h16.004V91.496
		c0-28.388-23.096-51.484-51.484-51.484c-7.619,0-14.694,2.369-20.536,6.403v-9.286C327.522,16.656,310.866,0,290.392,0h-58.749
		c-70.518,0-127.888,57.37-127.888,127.887v7.852h24.008v32.311h-0.151c-17.567,0-31.86,14.291-31.86,31.859
		s14.291,31.859,31.86,31.859h0.151v48.164c0,15.086,2.634,29.566,7.451,43.016c-37.226,12.858-70.517,36.976-94.408,68.558
		C14.388,426.428,0.425,468.095,0.425,512h15.704c0-40.457,12.864-78.847,37.202-111.02c18.75-24.788,43.781-44.579,71.975-57.226
		l-47.301,81.089l45.882,53.53l-20.131,13.42v20.206h15.704v-11.803l27.885-18.589l-50.145-58.503l46.984-80.546
		c11.272,19.982,27.756,36.65,47.6,48.137v121.304h15.704V398.394c5.157,2.104,10.477,3.886,15.943,5.31v42.67
		c0,5.126,4.102,9.304,9.194,9.445l-9.194,13.791V512h15.704v-37.634l12.355-18.532h7.602l12.355,18.532V512h15.704V469.61
		l-9.194-13.791c5.092-0.141,9.194-4.319,9.194-9.445v-42.485c5.778-1.469,11.395-3.341,16.83-5.567V512h15.704V390.592
		c19.768-11.484,36.197-28.106,47.438-48.032l46.984,80.546l-50.145,58.503l27.885,18.589V512h15.704v-20.206l-20.131-13.42
		l45.882-53.53l-47.549-81.512c28.58,12.627,53.959,32.583,72.919,57.646c24.339,32.174,37.204,70.565,37.204,111.023h15.704
		C511.574,468.094,497.611,426.425,471.191,391.501z M127.764,216.063h-0.151c-8.908,0-16.156-7.247-16.156-16.155
		c0-8.908,7.248-16.155,16.156-16.155h0.151V216.063z M383.688,183.753c8.908,0,16.156,7.247,16.156,16.155
		c0,8.908-7.248,16.155-16.156,16.155h-0.151v-32.31H383.688z M327.522,76.252c0-11.324,9.213-20.537,20.536-20.537
		c19.729,0,35.78,16.051,35.78,35.78v28.539h-32.99c-12.862,0-23.326-10.464-23.326-23.326V76.252z M119.732,120.035
		c4.043-58.209,52.692-104.331,111.912-104.331h58.749c11.814,0,21.426,9.612,21.426,21.425v31.596
		c0,28.292-23.017,51.31-51.31,51.31C260.508,120.035,119.732,120.035,119.732,120.035z M271.443,440.129h-32.31v-32.311h32.31
		V440.129z M367.834,279.932c0,59.218-46.124,107.859-104.331,111.905v-7.874H247.8v7.874
		c-58.208-4.044-104.331-52.686-104.331-111.905v-96.179h32.491c-5.128,6.709-8.183,15.081-8.183,24.158
		c0,21.98,17.881,39.861,39.861,39.861s39.861-17.882,39.861-39.861c0-0.05-0.004-0.1-0.004-0.151h16.313
		c-0.001,0.05-0.004,0.1-0.004,0.151c0,21.98,17.881,39.861,39.861,39.861s39.861-17.882,39.861-39.861
		c0-9.076-3.055-17.449-8.183-24.158h32.491V279.932z M183.479,207.911c0-13.321,10.838-24.158,24.158-24.158
		c13.32,0,24.158,10.837,24.158,24.158s-10.838,24.158-24.158,24.158C194.317,232.068,183.479,221.23,183.479,207.911z
		 M279.506,207.911c0-13.321,10.838-24.158,24.158-24.158c13.32,0,24.158,10.837,24.158,24.158s-10.838,24.158-24.158,24.158
		C290.344,232.068,279.506,221.23,279.506,207.911z M367.834,168.049h-64.169c-16.348,0-30.421,9.895-36.564,24.007h-22.899
		c-6.143-14.111-20.217-24.007-36.564-24.007h-64.169v-32.311h117.041c21.758,0,41.12-10.429,53.371-26.544
		c5.22,15.415,19.815,26.544,36.97,26.544h16.986V168.049z"/>
	<path style="fill:#1D1D1B;" d="M255.65,295.785c-13.153,0-23.856-10.702-23.856-23.856v-8.003h15.704v8.003
		c0,4.495,3.657,8.152,8.152,8.152s8.152-3.657,8.152-8.152v-8.003h15.704v8.003C279.506,285.084,268.805,295.785,255.65,295.785z"
		/>
</g>
<g>
</g>
<g>
</g>
<g>
</g>
<g>
</g>
<g>
</g>
<g>
</g>
<g>
</g>
<g>
</g>
<g>
</g>
<g>
</g>
<g>
</g>
<g>
</g>
<g>
</g>
<g>
</g>
<g>
</g>
</svg>
